<svg version="1.2" xmlns="http://www.w3.org/2000/svg" viewBox="0 0 548 226" width="548" height="226">
	<title>FooterLogo-svg</title>
	<style>
		.s0 { fill: #ffffff } 
		.s1 { fill: #30b6c9 } 
	</style>
	<g id="Folder 1">
		<path id="Layer" fill-rule="evenodd" class="s0" d="m199.5 148v-47.6h26.1q5.3 0 8.7 1.9 3.6 1.9 5.3 5.3 1.7 3.3 1.7 7.7 0 4.6-2.1 8.2-2 3.5-6 5.4l9.7 19.1h-11.4l-8.4-17.4h-13.2v17.4zm10.3-25.5h14.3q3.1 0 4.9-1.9 1.7-1.9 1.7-5.2 0-2.1-0.8-3.5-0.7-1.6-2.2-2.3-1.4-0.8-3.6-0.8h-14.3z"/>
		<path id="Layer" fill-rule="evenodd" class="s0" d="m265.3 148.8q-6 0-10.1-2-4.2-2.1-6.3-6.3-2.2-4.3-2.2-10.8 0-6.5 2.2-10.7 2.1-4.2 6.3-6.2 4.1-2.1 10.1-2.1 6.1 0 10.2 2.1 4.1 2 6.3 6.2 2.1 4.2 2.1 10.7 0 6.5-2.1 10.8-2.2 4.2-6.3 6.3-4.1 2-10.2 2zm0-7.5q3.2 0 5-1.2 2-1.1 2.9-3.6 0.9-2.4 0.9-5.9v-1.7q0-3.5-0.9-6-0.9-2.4-2.9-3.6-1.8-1.2-5-1.2-3.1 0-5.1 1.2-1.9 1.2-2.8 3.6-0.9 2.5-0.9 6v1.7q0 3.5 0.9 5.9 0.9 2.5 2.8 3.6 2 1.2 5.1 1.2z"/>
		<path id="Layer" class="s0" d="m291 97.9h9.6v50.1h-9.6z"/>
		<path id="Layer" class="s0" d="m309.5 97.9h9.6v50.1h-9.6z"/>
		<path id="Layer" class="s0" d="m327.9 97.9h9.7v8.3h-9.7zm0 13.6h9.7v36.5h-9.7z"/>
		<path id="Layer" class="s0" d="m346.4 148v-36.5h8l0.7 5h0.5q1.3-1.8 3-3.1 1.8-1.3 4-2 2.2-0.7 4.9-0.7 3.6 0 6.3 1.3 2.7 1.3 4.1 4.2 1.6 2.8 1.6 7.4v24.4h-9.7v-22.9q0-1.7-0.4-2.9-0.4-1.3-1.2-2-0.8-0.9-2-1.2-1.2-0.3-2.6-0.3-2.2 0-3.9 1-1.7 1-2.7 2.8-1 1.8-1 4.2v21.3z"/>
		<path id="Layer" fill-rule="evenodd" class="s0" d="m394 161q-2.4 0-4.5-1.1-2.2-0.9-3.5-2.9-1.3-1.9-1.3-4.6 0-3.1 1.7-4.9 1.8-1.8 4-2.7-1.6-0.9-2.6-2.4-1-1.4-1-3.4 0-2.7 2-4.3 2-1.8 4.6-2.3-2.6-1.6-4.1-4-1.4-2.5-1.4-5.5 0-4 2-6.7 2-2.7 5.7-4.1 3.7-1.4 8.8-1.4 2 0 3.7 0.2 1.8 0.2 3.3 0.7 2.5-1.5 3.4-3.3 1-1.9 1.1-3h8.9q0 2.5-1 4.4-0.9 1.9-2.6 3.1-1.7 1.2-4.2 1.8 1.8 1.5 2.8 3.6 1 2.2 1 4.7 0 3.9-1.9 6.6-1.9 2.7-5.3 4.2-3.4 1.4-8.2 1.4h-5.5q-1.7 0-2.5 0.7-0.9 0.5-0.9 1.6 0 0.9 0.7 1.6 0.8 0.6 2.5 0.6h15.1q4.6 0 7.3 2.9 2.8 2.8 2.8 7.1 0 3.3-1.8 5.9-1.7 2.6-4.7 4-3.1 1.5-7 1.5zm4-6.5h12.8q1.2 0 2.2-0.4 1-0.5 1.5-1.3 0.6-0.8 0.6-1.8 0-1.8-1.1-2.7-1.1-0.9-2.8-0.9h-13.2q-1.7 0-2.8 1-1 0.9-1 2.5 0 1.6 1 2.6 1.1 1 2.8 1zm6.3-25.6q3.4 0 5.1-1.5 1.8-1.6 1.8-4.5 0-2.9-1.8-4.5-1.7-1.6-5.1-1.5-3.3-0.1-5.1 1.5-1.8 1.6-1.8 4.5 0 1.8 0.8 3.2 0.8 1.4 2.3 2.1 1.5 0.7 3.8 0.7z"/>
		<path id="Layer" fill-rule="evenodd" class="s0" d="m199.5 224.2v-47.6h19.4q7.5 0 12.6 2.6 5.2 2.6 8 7.8 2.9 5.2 2.9 13.4 0 8.1-2.9 13.4-2.8 5.2-8 7.8-5.1 2.6-12.6 2.6zm10.4-8.6h9q3.1 0 5.5-0.9 2.4-0.9 4-2.6 1.6-1.8 2.5-4.4 0.8-2.7 0.8-6.3v-2q0-3.6-0.8-6.2-0.9-2.7-2.5-4.4-1.6-1.8-4-2.7-2.4-1-5.5-1h-9z"/>
		<path id="Layer" class="s0" d="m249.9 174.1h9.7v8.3h-9.7zm0 13.6h9.7v36.5h-9.7z"/>
		<path id="Layer" class="s0" d="m268.4 224.2v-36.5h8l0.7 5h0.5q1.2-1.8 2.8-3.1 1.6-1.3 3.7-2 2-0.7 4.4-0.7 3.5 0 5.9 1.4 2.6 1.4 4 4.4h0.5q1.2-1.8 2.8-3.1 1.7-1.3 3.8-2 2.2-0.7 4.6-0.7 3.5 0 6 1.2 2.5 1.3 4 4.1 1.4 2.8 1.4 7.2v24.8h-9.6v-23q0-1.8-0.4-2.9-0.4-1.3-1-2-0.7-0.7-1.8-1.1-1-0.3-2.2-0.3-1.9 0-3.5 1-1.5 1-2.4 2.8-0.8 1.8-0.8 4.2v21.3h-9.6v-23q0-1.8-0.5-2.9-0.3-1.3-1-2-0.7-0.7-1.7-1.1-1-0.3-2.3-0.3-1.8 0-3.4 1-1.5 1-2.4 2.8-0.9 1.8-0.9 4.2v21.3z"/>
		<path id="Layer" fill-rule="evenodd" class="s0" d="m346.7 225q-6.1 0-10.2-2-4-2.1-6.1-6.3-2.1-4.2-2.1-10.8 0-6.5 2.1-10.7 2.1-4.2 6.1-6.2 4.1-2.1 10-2.1 5.5 0 9.3 2 3.8 1.9 5.8 6.1 1.9 4.1 1.9 10.6v2.5h-25.4q0.1 3.2 0.9 5.4 0.9 2.2 2.7 3.3 1.9 1.1 5 1.1 1.6 0 2.9-0.5 1.4-0.4 2.4-1.2 1-0.8 1.5-2.1 0.6-1.2 0.6-2.8h9.4q0 3.4-1.3 6-1.2 2.6-3.4 4.3-2.2 1.7-5.4 2.6-3 0.8-6.7 0.8zm-8.5-23h15.4q0-2.1-0.6-3.6-0.5-1.5-1.4-2.5-0.9-1-2.2-1.4-1.2-0.5-2.8-0.5-2.6 0-4.4 0.9-1.8 0.9-2.7 2.7-0.9 1.7-1.3 4.4z"/>
		<path id="Layer" class="s0" d="m370.6 224.2v-36.5h7.9l0.8 5h0.5q1.2-1.8 3-3.1 1.8-1.3 4-2 2.2-0.7 4.8-0.7 3.6 0 6.3 1.3 2.7 1.3 4.2 4.2 1.5 2.8 1.5 7.4v24.4h-9.6v-22.9q0-1.7-0.4-2.9-0.5-1.3-1.3-2-0.7-0.8-1.9-1.2-1.2-0.3-2.7-0.3-2.1 0-3.8 1-1.8 1-2.7 2.8-1 1.8-1 4.2v21.3z"/>
		<path id="Layer" class="s0" d="m427 225q-3.8 0-6.9-0.8-3-0.9-5.2-2.3-2.1-1.5-3.3-3.6-1.1-2.1-1.1-4.7 0-0.3 0-0.6 0-0.3 0.1-0.4h9.3q0 0.1 0 0.3 0 0.1 0 0.3 0 1.7 1.1 2.8 1 1 2.7 1.5 1.7 0.5 3.6 0.5 1.6 0 3.2-0.3 1.6-0.3 2.6-1.2 1.1-0.8 1.1-2.1 0-1.7-1.4-2.6-1.3-0.9-3.5-1.4-2.2-0.6-4.7-1.3-2.4-0.5-4.7-1.2-2.4-0.8-4.3-2-1.9-1.1-3.1-3-1.2-1.9-1.2-4.9 0-2.8 1.3-4.9 1.2-2.1 3.4-3.5 2.2-1.4 5.1-2 3-0.7 6.4-0.7 3.2 0 5.9 0.7 2.8 0.6 4.9 1.9 2.1 1.3 3.2 3.2 1.2 1.9 1.2 4.2 0 0.5 0 0.9 0 0.5 0 0.6h-9.3v-0.6q0-1.2-0.7-2-0.8-0.9-2.2-1.4-1.4-0.5-3.4-0.5-1.4 0-2.6 0.2-1.1 0.2-1.9 0.6-0.9 0.4-1.4 1.1-0.4 0.5-0.4 1.3 0 1.2 1 2 1 0.7 2.7 1.2 1.7 0.5 3.7 1 2.5 0.7 5.2 1.4 2.7 0.6 5.1 1.7 2.4 1.1 3.8 3.2 1.5 2 1.5 5.5 0 3.3-1.4 5.6-1.2 2.3-3.5 3.7-2.3 1.4-5.3 2-3.1 0.6-6.6 0.6z"/>
		<path id="Layer" class="s0" d="m450.7 174.1h9.7v8.3h-9.7zm0 13.6h9.7v36.5h-9.7z"/>
		<path id="Layer" fill-rule="evenodd" class="s0" d="m486 225q-6 0-10.1-2-4.2-2.1-6.3-6.3-2.2-4.3-2.2-10.8 0-6.5 2.2-10.7 2.1-4.2 6.3-6.2 4.1-2.1 10.1-2.1 6.1 0 10.2 2.1 4.1 2 6.3 6.2 2.1 4.2 2.1 10.7 0 6.5-2.1 10.8-2.2 4.2-6.3 6.3-4.1 2-10.2 2zm0-7.5q3.2 0 5-1.2 2-1.1 2.9-3.6 0.9-2.4 0.9-5.9v-1.7q0-3.5-0.9-5.9-0.9-2.5-2.9-3.6-1.8-1.3-5-1.3-3.1 0-5.1 1.3-1.9 1.1-2.8 3.6-0.9 2.4-0.9 5.9v1.7q0 3.5 0.9 5.9 0.9 2.5 2.8 3.6 2 1.2 5.1 1.2z"/>
		<path id="Layer" class="s0" d="m511.7 224.2v-36.5h8l0.7 5h0.5q1.3-1.8 3-3.1 1.8-1.3 4-2 2.2-0.7 4.9-0.7 3.6 0 6.3 1.3 2.7 1.3 4.1 4.2 1.5 2.8 1.5 7.4v24.4h-9.6v-22.9q0-1.7-0.4-2.9-0.4-1.3-1.2-2-0.8-0.8-2-1.2-1.2-0.3-2.6-0.3-2.2 0-3.9 1-1.7 1-2.7 2.8-1 1.8-1 4.2v21.3z"/>
		<path id="Layer" class="s1" d="m0 168.8l56.3-0.1v56.3h-56.3z"/>
		<path id="Layer" class="s1" d="m0 112.5h56.3v56.3h-56.3z"/>
		<path id="Layer" class="s1" d="m0 56.3h56.3v56.2h-56.3z"/>
		<path id="Layer" class="s1" d="m0 0h56.1v225h-56.1z"/>
		<path id="Layer" class="s1" d="m0 0h112.5v56.4h-112.5z"/>
		<path id="Layer" class="s1" d="m112.5 56.3h56.3v56.2h-56.3z"/>
		<path id="Layer" class="s1" d="m0 112.5h112.5v56.4h-112.5z"/>
		<path id="Layer" class="s1" d="m163.8 224h-56.3v-56.3h56.2z"/>
	</g>
</svg>